<svg id="Layer_1" data-name="Layer 1" xmlns="http://www.w3.org/2000/svg" viewBox="0 0 65.09 28.1"><defs><style>.cls-1,.cls-2{fill:#00baf7;}.cls-1{fill-rule:evenodd;}.cls-2{font-size:21px;font-family:BaiJamjuree-Regular, Bai Jamjuree;}</style></defs><g id="Layer_1-2" data-name="Layer 1-2"><g id="_2005179976224" data-name=" 2005179976224"><path class="cls-1" d="M3.54,8.9H20.92A7.65,7.65,0,0,0,21,6a1.78,1.78,0,0,0-.51-.1H2.43a10.41,10.41,0,0,0,.8,2.23c.12.26.19.56.31.81Z" transform="translate(0 3.15)"/><path class="cls-1" d="M4.75,15.48c0,.45.14.39.57.84l2.39,2.37c.44.47.17.31.48.42.16-.31,2.18-4.14,2.67-4.3,1-.34,3.47.54,6.17-.8.68-.34,2.3-1.49,2.48-2.17H4.75Z" transform="translate(0 3.15)"/><path class="cls-1" d="M1.11,2.94h18.4A3,3,0,0,0,18.74,2c-2.22-2.25-4.81-2-7.52-2H0C.05.62.94,2.19,1.11,2.94Z" transform="translate(0 3.15)"/></g></g><text class="cls-2" transform="translate(21.23 17.85)">-pay</text></svg>