<?xml version="1.0" encoding="utf-8"?>
<!-- Generator: Adobe Illustrator 26.0.1, SVG Export Plug-In . SVG Version: 6.00 Build 0)  -->
<svg version="1.1" id="Layer_1" xmlns="http://www.w3.org/2000/svg" xmlns:xlink="http://www.w3.org/1999/xlink" x="0px" y="0px"
	 viewBox="0 0 438 272" style="enable-background:new 0 0 438 272;" xml:space="preserve">
<style type="text/css">
	.st0{opacity:0.3;}
	.st1{fill:#BFBDE2;}
	.st2{fill-rule:evenodd;clip-rule:evenodd;}
	.st3{fill-rule:evenodd;clip-rule:evenodd;fill:#FFFFFF;}
	.st4{fill-rule:evenodd;clip-rule:evenodd;fill:#D8D8D8;fill-opacity:0.736;}
	.st5{fill-rule:evenodd;clip-rule:evenodd;fill:#D8D8D8;}
	.st6{opacity:0.795;fill:#E1E1EC;enable-background:new    ;}
	.st7{fill:#167C80;}
	.st8{fill:none;stroke:#535461;stroke-width:3;}
	.st9{fill:#6C63FF;}
	.st10{fill:#E2E2E2;}
	.st11{opacity:0.2;enable-background:new    ;}
	.st12{opacity:0.731;fill:#E1E1EC;enable-background:new    ;}
	.st13{opacity:0.1;fill:#167C80;enable-background:new    ;}
	.st14{fill:#FFD037;}
	.st15{fill:#007AFF;}
	.st16{opacity:0.1;enable-background:new    ;}
</style>
<g>
	<g class="st0">
		<path class="st1" d="M4.5,156c6.7,26.6,20.9,49.6,43.3,60.8C94.4,240,199.6,228,278,214.3c40.6-7.1,76.3-26.7,102.2-54.3L4.5,156z
			 M417,29.4h-43.1c-2.1,0-3.7-1.6-3.7-3.5s1.7-3.5,3.7-3.5h7.5c-2.1,0-3.7-1.6-3.7-3.5s1.7-3.5,3.7-3.5H376c-2.1,0-3.7-1.6-3.7-3.5
			s1.7-3.5,3.7-3.5h22.5c-5-2.2-10.8-3.7-17.6-4.6c-61.4-7.4-83.3-2.5-91,2.5c-9.6,6.4-20.3,10.8-31.5,13
			c-37.9,7.4-108.7,16.2-172.9-2.8C53.7,7.1,30,23.1,15.8,49.8h408.8c-0.5-7.8-2.1-14.9-5.1-21.2C418.8,29.1,417.9,29.4,417,29.4z"
			/>
		<path class="st1" d="M424.3,49.8L10.7,59.2c-5,12.2-8.4,26-9.9,40.3h416.3c2.7-8.4,4.7-17,6-25.7
			C424.3,65.4,424.8,57.3,424.3,49.8z M84.7,80.8h-7.5c2.1,0,3.7,1.6,3.7,3.5s-1.7,3.5-3.7,3.5H34.1c-2,0-3.7-1.6-3.7-3.5
			s1.7-3.5,3.7-3.5h7.5c-2,0-3.7-1.6-3.7-3.5s1.7-3.5,3.7-3.5h-5.3c-2,0-3.7-1.6-3.7-3.5s1.7-3.5,3.7-3.5h43.2
			c2.1,0,3.7,1.6,3.7,3.5s-1.7,3.5-3.7,3.5h5.3c2.1,0,3.7,1.6,3.7,3.5S86.8,80.8,84.7,80.8L84.7,80.8z M0.9,100.3
			c-1.7,15.6-1.1,31.3,1.7,46.7L381,159.8c10.5-11.2,19.3-23.7,26.3-37.4L0.9,100.3z M150.6,133.5h-7.5c2,0,3.7,1.6,3.7,3.5
			s-1.7,3.5-3.7,3.5H100c-2,0-3.7-1.6-3.7-3.5s1.7-3.5,3.7-3.5h7.5c-2,0-3.7-1.6-3.7-3.5s1.7-3.5,3.7-3.5h-5.3c-2,0-3.7-1.6-3.7-3.5
			s1.7-3.5,3.7-3.5h43.1c2.1,0,3.7,1.6,3.7,3.5s-1.7,3.5-3.7,3.5h5.3c2.1,0,3.7,1.6,3.7,3.5S152.6,133.5,150.6,133.5L150.6,133.5z"
			/>
	</g>
	<g transform="translate(147 97.68)">
		<g>
			<path id="c_00000015327746017683282920000005383830241792920245_" class="st2" d="M3,0h78c1.7,0,3,1.3,3,3v78.2c0,1.7-1.3,3-3,3
				H3c-1.7,0-3-1.3-3-3V3C0,1.3,1.3,0,3,0z"/>
		</g>
		<g>
			<path id="c_00000167369915613250554210000005198722192026965411_" class="st3" d="M3,0h78c1.7,0,3,1.3,3,3v78.2c0,1.7-1.3,3-3,3
				H3c-1.7,0-3-1.3-3-3V3C0,1.3,1.3,0,3,0z"/>
		</g>
		<ellipse class="st4" cx="40.5" cy="37.6" rx="24" ry="24"/>
		<path class="st5" d="M29.3,69.1h37.5c0.4,0,0.8,0.3,0.8,0.8l0,0c0,0.4-0.3,0.8-0.8,0.8H29.3c-0.4,0-0.8-0.3-0.8-0.8l0,0
			C28.5,69.5,28.8,69.1,29.3,69.1z"/>
		<path class="st5" d="M29.3,76.6h27c0.4,0,0.8,0.3,0.8,0.8l0,0c0,0.4-0.3,0.8-0.8,0.8h-27c-0.4,0-0.8-0.3-0.8-0.8l0,0
			C28.5,77,28.8,76.6,29.3,76.6z"/>
		<ellipse class="st5" cx="22.5" cy="69.1" rx="1.5" ry="1.5"/>
		<ellipse class="st5" cx="22.5" cy="76.6" rx="1.5" ry="1.5"/>
		<path class="st3" d="M60.3,15l2.8,2.8c1.2,1.2,1.2,3.1,0,4.2L24.9,60.2c-1.2,1.2-3.1,1.2-4.2,0l-2.8-2.8c-1.2-1.2-1.2-3.1,0-4.2
			L56.1,15C57.2,13.8,59.1,13.8,60.3,15z"/>
	</g>
	<path class="st6" d="M42,264.5c8.6,3,19,1.2,28.7,1.4c1.3,0,2.7,0.1,3.8,0.6c1.1,0.5,1.6,1.4,2.3,2.1c2.7,2.7,8.3,3.5,13.2,3.1
		c4.9-0.5,9.3-2,14-3.1c8-2,17-2.9,24.9-0.7c0.7,0.3,1.5,0.4,2.2,0.3c1.7-0.2,2.2-1.6,3.4-2.4c2.2-1.5,6.9-1.1,7.8-3
		c0.6-1.1-0.7-2.3-2.1-3.1c-5.4-3-13-3.5-20-3s-13.9,1.7-21,1.7c-8.8,0-17.3-2-26-2.8c-6-0.6-12.6-0.5-18.2,1.2
		C48.9,258.5,47.5,262.4,42,264.5L42,264.5z"/>
	<path class="st7" d="M140.9,261.2c0.7-0.7,1.3-1.7,1.5-2.8c0.2-1.1-0.2-2.5-1.1-2.9c-1-0.5-2,0.4-2.8,1.2c-0.8,0.8-1.7,1.8-2.8,1.6
		c1.1-1.2,1.6-3,1.3-4.8c0-0.3-0.2-0.7-0.4-1c-0.5-0.7-1.5-0.4-2.2,0.2c-2.1,1.8-2.7,5.2-2.7,8.3c-0.2-1.1,0-2.3,0-3.4
		s-0.3-2.4-1.1-3c-0.5-0.3-1-0.5-1.6-0.5c-0.9,0-2,0.1-2.6,0.9c-0.8,1-0.6,2.8,0.1,3.9s1.7,1.8,2.7,2.6c0.8,0.6,1.4,1.3,1.9,2.2
		c0.1,0.1,0.1,0.3,0.1,0.4h5.9C138.6,263.5,139.8,262.4,140.9,261.2L140.9,261.2z"/>
	<path class="st8" d="M92.6,265.8c0,0-6.7-20.7,1.3-36c3.4-6.4,4.4-13.6,2.9-20.5c-0.8-3.3-1.8-6.5-3.2-9.6"/>
	<path class="st9" d="M97.5,191.9c0,2.4-5.2,9.2-5.2,9.2s-5.2-6.9-5.2-9.2c0-2.4,2.3-4.3,5.2-4.3S97.5,189.5,97.5,191.9z
		 M105.7,205.6c-1.5,2.2-9.7,6.1-9.7,6.1s0.1-9.1,1.6-11.3s4.4-2.9,6.7-1.4C106.5,200.3,107.2,203.3,105.7,205.6L105.7,205.6z
		 M104,230.5c-2.3,1.3-11,0.4-11,0.4s4.5-8.4,6.8-9.7c1.5-0.8,3.2-0.7,4.6,0.3s2.2,2.8,2.1,4.6C106.4,228,105.4,229.7,104,230.5
		L104,230.5z M101.3,246.8c-2.2,1.7-11.3,2.5-11.3,2.5s3.4-9.1,5.5-10.8c1.4-1.2,3.3-1.5,5-0.8s2.8,2.4,3,4.3
		C103.7,243.8,102.8,245.7,101.3,246.8L101.3,246.8L101.3,246.8z M85.5,210.9c1.9,1.8,10.5,3.7,10.5,3.7s-2.1-8.8-4-10.6
		c-1.2-1.2-2.9-1.7-4.6-1.3c-1.6,0.5-2.9,1.8-3.3,3.5C83.7,208,84.3,209.7,85.5,210.9L85.5,210.9L85.5,210.9z M82,233.5
		c2.3,1.3,11,0.4,11,0.4s-4.6-8.4-6.8-9.7c-2.3-1.2-5-0.2-6.2,2.4C78.9,229.1,79.7,232.2,82,233.5z M80.2,252.8
		c2.2,1.7,11.3,2.5,11.3,2.5s-3.4-9.1-5.5-10.8c-1.4-1.2-3.3-1.5-5-0.8s-2.8,2.4-3,4.3C77.8,249.8,78.7,251.7,80.2,252.8L80.2,252.8
		z"/>
	<path class="st7" d="M97.5,191.9c0,2.4-5.2,9.2-5.2,9.2s-5.2-6.9-5.2-9.2c0-2.4,2.3-4.3,5.2-4.3S97.5,189.5,97.5,191.9z
		 M105.7,205.6c-1.5,2.2-9.7,6.1-9.7,6.1s0.1-9.1,1.6-11.3s4.4-2.9,6.7-1.4C106.5,200.3,107.2,203.3,105.7,205.6L105.7,205.6z
		 M104,230.5c-2.3,1.3-11,0.4-11,0.4s4.5-8.4,6.8-9.7c1.5-0.8,3.2-0.7,4.6,0.3s2.2,2.8,2.1,4.6C106.4,228,105.4,229.7,104,230.5
		L104,230.5z M101.3,246.8c-2.2,1.7-11.3,2.5-11.3,2.5s3.4-9.1,5.5-10.8c1.4-1.2,3.3-1.5,5-0.8s2.8,2.4,3,4.3
		C103.7,243.8,102.8,245.7,101.3,246.8L101.3,246.8L101.3,246.8z M85.5,210.9c1.9,1.8,10.5,3.7,10.5,3.7s-2.1-8.8-4-10.6
		c-1.2-1.2-2.9-1.7-4.6-1.3c-1.6,0.5-2.9,1.8-3.3,3.5C83.7,208,84.3,209.7,85.5,210.9L85.5,210.9L85.5,210.9z M82,233.5
		c2.3,1.3,11,0.4,11,0.4s-4.6-8.4-6.8-9.7c-2.3-1.2-5-0.2-6.2,2.4C78.9,229.1,79.7,232.2,82,233.5z M80.2,252.8
		c2.2,1.7,11.3,2.5,11.3,2.5s-3.4-9.1-5.5-10.8c-1.4-1.2-3.3-1.5-5-0.8s-2.8,2.4-3,4.3C77.8,249.8,78.7,251.7,80.2,252.8L80.2,252.8
		z"/>
	<path class="st10" d="M78,261.9c0,0,7.3-1.4,9.2-3.2c1.9-1.8,10.6-5,11.6-2.7s13.1,10,4.8,11.4c-8.2,1.4-19.4,1.8-21.8,0.9
		C79.4,267.4,78,261.9,78,261.9L78,261.9z"/>
	<path class="st11" d="M103.7,269.3c-8.2,1.5-19.4,2-21.8,1c-1.8-0.8-3.1-4.4-3.6-6.1l-0.2,0.1c0,0,1.5,6,3.9,6.9
		c2.4,1,13.6,0.5,21.8-1c2.4-0.4,3.1-1.4,2.8-2.7C106.2,268.4,105.4,269,103.7,269.3L103.7,269.3z"/>
	<g>
		<path class="st12" d="M279,236.7c6.8,3.3,15,1.3,22.7,1.5c1.1,0,2.2,0.1,3,0.7c0.8,0.6,1.3,1.5,1.8,2.3c2.2,2.9,6.6,3.9,10.4,3.4
			c3.9-0.5,7.4-2.1,11-3.4c6.3-2.2,13.5-3.1,19.7-0.8c0.5,0.3,1.2,0.4,1.8,0.4c1.4-0.2,1.8-1.8,2.7-2.7c1.7-1.6,5.4-1.2,6.2-3.3
			c0.4-1.3-0.6-2.5-1.7-3.4c-4.2-3.3-10.3-3.8-15.9-3.3s-11,1.9-16.6,1.9c-6.9,0-13.7-2.1-20.5-3c-4.8-0.6-10-0.5-14.4,1.3
			C284.4,230.2,283.4,234.5,279,236.7L279,236.7z"/>
		<path class="st12" d="M204.9,234.6c4.2,2.2,9.3,0.9,14,1c0.6,0,1.3,0.1,1.9,0.5c0.5,0.4,0.8,1,1.1,1.5c1.3,1.9,4,2.6,6.4,2.2
			c2.4-0.3,4.6-1.4,6.8-2.3c3.9-1.4,8.3-2.1,12.1-0.5c0.3,0.2,0.7,0.3,1.1,0.3c0.8-0.1,1.1-1.2,1.7-1.8c1.1-1.1,3.4-0.8,3.8-2.2
			c0.3-0.8-0.4-1.7-1-2.3c-2.6-2.2-6.3-2.5-9.8-2.2c-3.4,0.3-6.8,1.3-10.2,1.3c-4.3,0-8.4-1.4-12.7-2c-2.9-0.4-6.1-0.4-8.9,0.8
			C208.2,230.3,207.6,233.2,204.9,234.6L204.9,234.6z"/>
		<path class="st7" d="M330.6,207.2c0,0,2.4,2.9-1.1,7.2c-3.5,4.4-6.4,8.1-5.2,10.8c0,0,5.3-8.1,9.6-8.2
			C338.2,216.8,335.3,212,330.6,207.2L330.6,207.2z"/>
		<path class="st13" d="M330.5,207.2c0.2,0.3,0.4,0.6,0.5,0.9c4.2,4.5,6.5,8.8,2.4,8.9c-3.8,0.1-8.4,6.3-9.5,7.9
			c0,0.1,0.1,0.2,0.1,0.4c0,0,5.4-8.1,9.7-8.2C338.2,216.8,335.3,212,330.5,207.2L330.5,207.2z"/>
		<path class="st14" d="M333.8,209.1c0,0.6-0.2,1.1-0.4,1.1s-0.4-0.5-0.4-1.1s0.2-0.3,0.4-0.3C333.6,208.7,333.8,208.4,333.8,209.1z
			"/>
		<path class="st15" d="M334.1,210.7c-0.6,0.4-1.1,0.6-1.1,0.5s0.4-0.5,1-0.9s0.4-0.1,0.4,0C334.4,210.5,334.7,210.3,334.1,210.7
			L334.1,210.7z"/>
		<path class="st7" d="M317.4,207.2c0,0-2.4,2.9,1.1,7.2c3.5,4.4,6.4,8.1,5.2,10.8c0,0-5.3-8.1-9.6-8.2
			C309.8,216.8,312.7,212,317.4,207.2L317.4,207.2z"/>
		<path class="st16" d="M317.5,207.2c-0.2,0.3-0.4,0.6-0.5,0.9c-4.2,4.5-6.5,8.8-2.4,8.9c3.8,0.1,8.4,6.3,9.5,7.9
			c0,0.1-0.1,0.2-0.1,0.4c0,0-5.4-8.1-9.7-8.2C309.8,216.8,312.7,212,317.5,207.2L317.5,207.2z"/>
		<path class="st14" d="M312,209.1c0,0.6,0.2,1.1,0.4,1.1s0.4-0.5,0.4-1.1s-0.2-0.3-0.4-0.3C312.1,208.7,312,208.4,312,209.1z
			 M309.4,210.7c0.6,0.4,1.1,0.6,1.1,0.5s-0.4-0.5-1-0.9s-0.4-0.1-0.4,0C309.1,210.5,308.8,210.3,309.4,210.7L309.4,210.7z"/>
		<path class="st10" d="M313.5,226.1c0,0,6.4-0.2,8.4-1.8c1.9-1.5,9.9-3.4,10.4-0.9c0.5,2.4,9.7,12.3,2.4,12.3s-16.9-1.3-18.9-2.6
			S313.5,226.1,313.5,226.1z"/>
		<path class="st11" d="M334.8,236.3c-7.3,0.1-16.9-1.4-18.9-2.8c-1.5-1.1-2.1-5-2.3-6.8h-0.2c0,0,0.4,6.3,2.4,7.7
			c1.9,1.4,11.6,2.9,18.9,2.8c2.1,0,2.8-0.9,2.8-2.3C337.2,235.8,336.4,236.3,334.8,236.3z"/>
		<path class="st7" d="M233.3,217.4c0,0,1.9,1.9-0.9,4.8c-2.8,2.9-5,5.4-4.1,7.2c0,0,4.2-5.4,7.5-5.5
			C239.3,223.9,237.1,220.7,233.3,217.4L233.3,217.4z"/>
		<path class="st13" d="M233.3,217.4c0.2,0.2,0.3,0.4,0.4,0.6c3.3,3,5.1,5.9,1.9,5.9c-3,0.1-6.6,4.2-7.4,5.2c0,0.1,0.1,0.2,0.1,0.2
			s4.2-5.4,7.6-5.5C239.3,223.9,237.1,220.7,233.3,217.4L233.3,217.4z"/>
		<path class="st15" d="M241.9,221.2c-0.6,0.4-1.1,0.6-1.1,0.5s0.4-0.5,1-0.9s0.4-0.1,0.4,0C242.2,221,242.5,220.9,241.9,221.2
			L241.9,221.2z"/>
		<path class="st7" d="M223,217.4c0,0-1.9,1.9,0.9,4.8c2.8,2.9,5,5.4,4.1,7.2c0,0-4.2-5.4-7.5-5.5C217,223.9,219.3,220.7,223,217.4
			L223,217.4z"/>
		<path class="st16" d="M223,217.4c-0.2,0.2-0.3,0.4-0.4,0.6c-3.3,3-5.1,5.9-1.9,5.9c3,0.1,6.6,4.2,7.4,5.2c0,0.1-0.1,0.2-0.1,0.2
			s-4.2-5.4-7.6-5.5C217,223.9,219.3,220.7,223,217.4L223,217.4z"/>
		<path class="st14" d="M219.7,219.6c0,0.6,0.2,1.1,0.4,1.1s0.4-0.5,0.4-1.1s-0.2-0.3-0.4-0.3C219.9,219.2,219.7,219,219.7,219.6z
			 M217.1,221.2c0.6,0.4,1.1,0.6,1.1,0.5s-0.4-0.5-1-0.9s-0.4-0.1-0.4,0C216.8,221,216.5,220.9,217.1,221.2L217.1,221.2z"/>
		<path class="st10" d="M219.9,230c0,0,5.1-0.1,6.6-1.2c1.5-1,7.8-2.2,8.2-0.6s7.6,8.2,1.9,8.2s-13.3-0.8-14.8-1.7
			C220.3,233.9,219.9,230,219.9,230z"/>
		<path class="st11" d="M236.7,236.8c-5.7,0-13.3-0.9-14.8-1.9c-1.2-0.7-1.6-3.3-1.8-4.5h-0.2c0,0,0.3,4.2,1.8,5.1
			c1.5,0.9,9.1,1.9,14.8,1.9c1.6,0,2.2-0.6,2.2-1.5C238.5,236.5,237.9,236.8,236.7,236.8z"/>
	</g>
</g>
</svg>
