<?xml version="1.0" encoding="utf-8"?>
<!-- Generator: Adobe Illustrator 26.0.1, SVG Export Plug-In . SVG Version: 6.00 Build 0)  -->
<svg version="1.1" id="Layer_1" xmlns="http://www.w3.org/2000/svg" xmlns:xlink="http://www.w3.org/1999/xlink" x="0px" y="0px"
	 viewBox="0 0 65.1 28.1" style="enable-background:new 0 0 65.1 28.1;" xml:space="preserve">
<style type="text/css">
	.st0{fill-rule:evenodd;clip-rule:evenodd;}
	.st1{font-family:'BaiJamjuree-Regular';}
	.st2{font-size:21px;}
</style>
<g id="Layer_1-2">
	<g id="_2005179976224">
		<path class="st0" d="M3.5,12h17.4c0.2-1,0.2-1.9,0.1-2.9c-0.2-0.1-0.3-0.1-0.5-0.1H2.4c0.2,0.8,0.4,1.5,0.8,2.2
			C3.3,11.5,3.4,11.8,3.5,12L3.5,12z"/>
		<path class="st0" d="M4.8,18.6c0,0.5,0.1,0.4,0.6,0.8l2.4,2.4c0.4,0.5,0.2,0.3,0.5,0.4c0.2-0.3,2.2-4.1,2.7-4.3
			c1-0.3,3.5,0.5,6.2-0.8c0.7-0.3,2.3-1.5,2.5-2.2H4.8V18.6z"/>
		<path class="st0" d="M1.1,6.1h18.4c-0.2-0.4-0.5-0.7-0.8-0.9c-2.2-2.2-4.8-2-7.5-2H0C0.1,3.8,0.9,5.3,1.1,6.1z"/>
	</g>
</g>
<text transform="matrix(1 0 0 1 21.23 17.85)" class="st1 st2">-pay</text>
</svg>
