<?xml version="1.0" encoding="utf-8"?>
<!-- Generator: Adobe Illustrator 26.0.1, SVG Export Plug-In . SVG Version: 6.00 Build 0)  -->
<svg version="1.1" id="Layer_1" xmlns="http://www.w3.org/2000/svg" xmlns:xlink="http://www.w3.org/1999/xlink" x="0px" y="0px"
	 viewBox="0 0 65.1 28.1" style="enable-background:new 0 0 65.1 28.1;" xml:space="preserve">
<style type="text/css">
	.st0{fill-rule:evenodd;clip-rule:evenodd;fill:#54428E;}
	.st1{enable-background:new    ;}
	.st2{fill:#54428E;}
</style>
<g id="Layer_1-2">
	<g id="_2005179976224">
		<path class="st0" d="M3.5,12h17.4c0.2-1,0.2-1.9,0.1-2.9C20.8,9,20.7,9,20.5,9H2.4c0.2,0.8,0.4,1.5,0.8,2.2
			C3.3,11.5,3.4,11.8,3.5,12L3.5,12z"/>
		<path class="st0" d="M4.8,18.6c0,0.5,0.1,0.4,0.6,0.8l2.4,2.4c0.4,0.5,0.2,0.3,0.5,0.4c0.2-0.3,2.2-4.1,2.7-4.3
			c1-0.3,3.5,0.5,6.2-0.8c0.7-0.3,2.3-1.5,2.5-2.2H4.8V18.6z"/>
		<path class="st0" d="M1.1,6.1h18.4c-0.2-0.4-0.5-0.7-0.8-0.9c-2.2-2.2-4.8-2-7.5-2H0C0.1,3.8,0.9,5.3,1.1,6.1z"/>
	</g>
</g>
<g class="st1">
	<path class="st2" d="M22.4,11.8H28v1.3h-5.6V11.8z"/>
	<path class="st2" d="M30.7,7.4h1.5v1.4c0.3-0.5,0.7-0.9,1.2-1.2s1-0.4,1.5-0.4h1.5c1.1,0,2,0.4,2.7,1.1s1,1.7,1,2.8v2.6
		c0,1.3-0.4,2.3-1.1,3.1S37.4,18,36.2,18h-1.5c-0.4,0-0.9-0.1-1.4-0.4c-0.5-0.2-0.8-0.6-1.1-1V22h-1.5V7.4z M36.2,16.7
		c0.7,0,1.3-0.3,1.7-0.8c0.4-0.5,0.7-1.3,0.7-2.2v-2.6c0-0.8-0.2-1.4-0.6-1.9c-0.4-0.5-1-0.7-1.7-0.7h-1.5c-0.6,0-1.1,0.2-1.6,0.7
		s-0.8,1-1,1.8v3.2c0.1,0.7,0.4,1.4,0.9,1.8c0.5,0.5,1,0.7,1.7,0.7H36.2z"/>
	<path class="st2" d="M43.5,17.2c-0.6-0.5-0.9-1.2-0.9-2.1v-0.7c0-0.9,0.3-1.6,0.9-2.1c0.6-0.5,1.5-0.8,2.5-0.8h1.3
		c0.5,0,0.9,0.1,1.4,0.2c0.5,0.1,0.9,0.3,1.3,0.6v-1.7c0-0.6-0.2-1.1-0.5-1.4S48.6,8.5,48,8.5h-1.7c-0.6,0-1.1,0.1-1.4,0.4
		c-0.4,0.3-0.5,0.7-0.5,1.1h-1.5c0-0.9,0.3-1.5,1-2.1c0.6-0.5,1.5-0.8,2.5-0.8H48c1,0,1.9,0.3,2.5,0.9s1,1.4,1,2.4v7.3h-1.4v-1.5
		c-0.3,0.5-0.7,0.9-1.3,1.2c-0.5,0.3-1.1,0.4-1.6,0.4h-1.3C44.9,18,44.1,17.8,43.5,17.2z M47.2,16.7c0.7,0,1.2-0.2,1.8-0.6
		s0.9-0.9,1-1.6v-0.8c-0.3-0.3-0.7-0.5-1.2-0.6c-0.5-0.2-1-0.2-1.5-0.2H46c-0.6,0-1,0.1-1.4,0.4c-0.4,0.3-0.5,0.7-0.5,1.2v0.7
		c0,0.5,0.2,0.9,0.5,1.2s0.8,0.4,1.3,0.4L47.2,16.7L47.2,16.7z"/>
	<path class="st2" d="M55.6,21.4c-0.6-0.5-0.9-1.2-1-2h1.5c0.1,0.4,0.2,0.8,0.6,1c0.3,0.3,0.7,0.4,1.2,0.4h1.6
		c0.7,0,1.3-0.2,1.7-0.7s0.6-1.2,0.6-2v-1.9c-0.3,0.5-0.8,0.9-1.3,1.2c-0.5,0.3-1,0.5-1.5,0.5h-1.3c-1,0-1.8-0.3-2.4-1
		c-0.6-0.7-0.9-1.5-0.9-2.6V7.4h1.5v7c0,0.7,0.2,1.2,0.5,1.6c0.3,0.4,0.8,0.6,1.3,0.6H59c0.6,0,1.2-0.3,1.8-0.8c0.5-0.5,0.9-1.2,1-2
		V7.4h1.5v10.7c0,1.3-0.3,2.3-1,3s-1.6,1.1-2.8,1.1h-1.6C57,22.1,56.2,21.9,55.6,21.4z"/>
</g>
</svg>
