<?xml version="1.0" encoding="utf-8"?>
<!-- Generator: Adobe Illustrator 26.0.1, SVG Export Plug-In . SVG Version: 6.00 Build 0)  -->
<svg version="1.1" id="Layer_1" xmlns="http://www.w3.org/2000/svg" xmlns:xlink="http://www.w3.org/1999/xlink" x="0px" y="0px"
	 viewBox="0 0 60 60" style="enable-background:new 0 0 60 60;" xml:space="preserve">
<style type="text/css">
	.st0{fill-rule:evenodd;clip-rule:evenodd;fill:#E5E7EB;}
</style>
<g id="Layer_1-2">
	<g id="_2005179976224">
		<path class="st0" d="M10.07,28.15h49.42c0.6-2.71,0.68-5.51,0.23-8.25c-0.47-0.17-0.96-0.26-1.45-0.28H6.91
			c0.51,2.19,1.28,4.32,2.27,6.34c0.34,0.74,0.54,1.59,0.88,2.3V28.15z"/>
		<path class="st0" d="M13.51,46.86c0,1.28,0.4,1.11,1.62,2.39l6.8,6.74c1.25,1.34,0.48,0.88,1.36,1.19
			c0.45-0.88,6.2-11.77,7.59-12.23c2.84-0.97,9.87,1.54,17.54-2.27c1.93-0.97,6.54-4.24,7.05-6.17H13.51V46.86z"/>
		<path class="st0" d="M3.16,11.2h52.32c-0.54-1.03-1.28-1.94-2.19-2.67c-6.31-6.4-13.68-5.69-21.38-5.69H0
			C0.14,4.61,2.67,9.07,3.16,11.2z"/>
	</g>
</g>
</svg>
