<?xml version="1.0" encoding="utf-8"?>
<!-- Generator: Adobe Illustrator 26.0.1, SVG Export Plug-In . SVG Version: 6.00 Build 0)  -->
<svg version="1.1" id="Layer_1" xmlns="http://www.w3.org/2000/svg" xmlns:xlink="http://www.w3.org/1999/xlink" x="0px" y="0px"
	 viewBox="0 0 940.7 434" style="enable-background:new 0 0 940.7 434;" xml:space="preserve">
<style type="text/css">
	.st0{fill:#F0F0F0;}
	.st1{fill:#FFFFFF;}
	.st2{fill:#FFB6B6;}
	.st3{fill:#2F2E41;}
	.st4{fill:#3F3D56;}
	.st5{fill:#FFB9B9;}
	.st6{opacity:0.1;enable-background:new    ;}
	.st7{fill:#E4E4E4;}
	.st8{fill:#CACACA;}
	.st9{fill:#54428E;}
</style>
<path class="st0" d="M199.5,409.8c-22.5-14.7-38.9-41.1-35.5-67.7c20.3,21.1,47.4,34.3,76.4,37.3c11.2,1.1,23.8,1.2,31.8,9.2
	c5,5,7.1,12.2,7.2,19.2c0.1,7-1.6,13.9-3.3,20.7l0.4,1.7C249.6,429.2,222,424.5,199.5,409.8z"/>
<path class="st1" d="M164.5,342.1c8.4,20.6,23.1,38,42,49.8c4,2.6,8.4,4.6,13.1,5.8c4.5,1.1,9.3,0.9,13.8-0.5
	c4.2-1.2,8.3-3,12.7-3.1c4.6-0.1,9,1.7,12.1,5c4,4,6.3,9.2,8.3,14.3c2.3,5.7,4.6,11.7,9.2,15.9c0.6,0.5-0.3,1.4-0.8,0.8
	c-8.1-7.4-9-19.2-15.4-27.7c-3-4-7.2-7.1-12.3-7.2c-4.5-0.1-8.8,1.7-13,2.9c-4.3,1.4-8.9,1.8-13.4,1c-4.7-1-9.2-2.8-13.2-5.3
	c-9.3-5.5-17.6-12.4-24.8-20.4c-8.2-9.2-14.8-19.7-19.4-31C163.1,341.7,164.2,341.4,164.5,342.1L164.5,342.1z"/>
<path class="st1" d="M200.2,388.4c-5,6-13.5,7.5-20.3,3.6c-0.7-0.4-0.1-1.4,0.6-1c6.2,3.7,14.2,2.2,18.8-3.4
	C199.9,387,200.7,387.8,200.2,388.4L200.2,388.4z"/>
<path class="st1" d="M231.3,398c-0.6-7.7-4.2-14.8-9.9-20c-0.6-0.5,0.3-1.4,0.8-0.8c5.9,5.4,9.6,12.9,10.2,20.9
	C232.5,398.8,231.4,398.8,231.3,398L231.3,398z"/>
<path class="st1" d="M176.1,363.8c2.4-1.9,3.6-4.8,3.3-7.8c-0.1-0.8,1.1-0.8,1.2,0c0.3,3.3-1.1,6.6-3.7,8.7c-0.2,0.2-0.6,0.2-0.8,0
	C175.9,364.4,175.8,364,176.1,363.8L176.1,363.8z"/>
<path class="st0" d="M240.8,293.3c0.1,0.5,0.1,0.9,0.2,1.4c0.8,6.4,2.2,12.6,4,18.8c0.1,0.5,0.3,1,0.4,1.4
	c4.6,14.8,11.9,28.5,21.5,40.6c3.8,4.8,8,9.3,12.5,13.5c6.2,5.8,13.4,11.5,17.3,18.8c0.4,0.8,0.8,1.5,1.1,2.3l-19.2,39.4
	c-0.1,0.1-0.2,0.1-0.3,0.2l-0.7,1.6c-0.2-0.2-0.5-0.4-0.7-0.6c-0.1-0.1-0.3-0.2-0.4-0.4c-0.1-0.1-0.2-0.2-0.3-0.2
	c0,0-0.1-0.1-0.1-0.1c-0.1-0.1-0.2-0.1-0.2-0.2c-1.4-1.2-2.8-2.4-4.2-3.6c0,0,0,0,0,0c-10.7-9.2-20.7-19.4-28.8-30.7
	c-0.2-0.3-0.5-0.7-0.7-1c-3.6-5.1-6.9-10.6-9.6-16.2c-1.5-3.1-2.8-6.3-4-9.5c-3-8.4-4.7-17.2-5-26.1c-0.6-17.8,4.6-35.5,16.5-48.4
	C240.2,293.9,240.5,293.6,240.8,293.3z"/>
<path class="st1" d="M241.2,293.6c-5.7,21.5-4.4,44.3,3.6,65c1.6,4.5,4,8.7,6.9,12.5c3,3.6,6.9,6.3,11.3,7.9c4.1,1.5,8.4,2.6,12,5.1
	c3.7,2.6,6.1,6.8,6.6,11.3c0.8,5.6-0.5,11.1-2,16.4c-1.6,5.9-3.4,12.1-2.2,18.3c0.1,0.7-1,0.9-1.2,0.2c-2.1-10.8,4.3-20.7,4.4-31.4
	c0-5-1.5-10-5.5-13.2c-3.5-2.8-8-3.9-12.1-5.5c-4.3-1.5-8.2-4-11.3-7.3c-3.1-3.6-5.6-7.7-7.4-12.2c-4.1-10-6.6-20.5-7.5-31.2
	c-1-12.2,0-24.6,3.2-36.5C240.3,292.4,241.4,292.9,241.2,293.6z"/>
<path class="st1" d="M241.8,352.1c-7.6,1.8-15.3-2.2-18.3-9.3c-0.3-0.7,0.8-1.2,1.1-0.5c2.8,6.7,10,10.4,17.1,8.7
	C242.4,350.8,242.6,351.9,241.8,352.1z"/>
<path class="st1" d="M260.9,378.5c4.1-6.5,5.6-14.3,4.2-21.9c-0.1-0.8,1-0.9,1.2-0.2c1.5,7.9-0.1,16-4.4,22.8
	C261.4,379.8,260.5,379.1,260.9,378.5z"/>
<path class="st1" d="M237.4,317.9c3-0.1,5.8-1.7,7.4-4.3c0.4-0.7,1.4,0.1,1,0.7c-1.8,2.8-4.8,4.6-8.2,4.7c-0.3,0-0.6-0.2-0.7-0.5
	C236.9,318.2,237.1,317.9,237.4,317.9L237.4,317.9z"/>
<path class="st0" d="M886.8,409.8c22.5-14.7,38.9-41.1,35.5-67.7c-20.3,21.1-47.4,34.3-76.4,37.3c-11.2,1.1-23.8,1.2-31.8,9.2
	c-5,5-7.1,12.2-7.2,19.2c-0.1,7,1.6,13.9,3.3,20.7l-0.4,1.7C836.7,429.2,864.3,424.5,886.8,409.8z"/>
<path class="st1" d="M921.8,342.1c-8.4,20.6-23.1,38-42,49.8c-4,2.6-8.4,4.6-13.1,5.8c-4.5,1.1-9.3,0.9-13.8-0.5
	c-4.2-1.2-8.3-3-12.7-3.1c-4.6-0.1-9,1.7-12.1,5c-4,4-6.3,9.2-8.3,14.3c-2.3,5.7-4.6,11.7-9.2,15.9c-0.6,0.5,0.3,1.4,0.8,0.8
	c8.1-7.4,9-19.2,15.4-27.7c3-4,7.2-7.1,12.3-7.2c4.5-0.1,8.8,1.7,13,2.9c4.3,1.4,8.9,1.8,13.4,1c4.7-1,9.2-2.8,13.2-5.3
	c9.3-5.5,17.6-12.4,24.8-20.4c8.2-9.2,14.8-19.7,19.4-31C923.3,341.7,922.1,341.4,921.8,342.1L921.8,342.1z"/>
<path class="st1" d="M886.1,388.4c5,6,13.5,7.5,20.3,3.6c0.7-0.4,0.1-1.4-0.6-1c-6.2,3.7-14.2,2.2-18.8-3.4
	C886.5,387,885.6,387.8,886.1,388.4L886.1,388.4z"/>
<path class="st1" d="M855,398c0.6-7.7,4.2-14.8,9.9-20c0.6-0.5-0.3-1.4-0.8-0.8c-5.9,5.4-9.6,12.9-10.2,20.9
	C853.8,398.8,855,398.8,855,398L855,398z"/>
<path class="st1" d="M910.3,363.8c-2.4-1.9-3.6-4.8-3.3-7.8c0.1-0.8-1.1-0.8-1.2,0c-0.3,3.3,1.1,6.6,3.7,8.7c0.2,0.2,0.6,0.2,0.8,0
	C910.5,364.4,910.5,364,910.3,363.8z"/>
<path class="st0" d="M845.6,293.3c-0.1,0.5-0.1,0.9-0.2,1.4c-0.8,6.4-2.2,12.6-4,18.8c-0.1,0.5-0.3,1-0.4,1.4
	c-4.6,14.8-11.9,28.5-21.5,40.6c-3.8,4.8-8,9.3-12.5,13.5c-6.2,5.8-13.4,11.5-17.3,18.8c-0.4,0.8-0.8,1.5-1.1,2.3l19.2,39.4
	c0.1,0.1,0.2,0.1,0.3,0.2l0.7,1.6c0.2-0.2,0.5-0.4,0.7-0.6c0.1-0.1,0.3-0.2,0.4-0.4c0.1-0.1,0.2-0.2,0.3-0.2c0,0,0.1-0.1,0.1-0.1
	c0.1-0.1,0.2-0.1,0.2-0.2c1.4-1.2,2.8-2.4,4.2-3.6c0,0,0,0,0,0c10.7-9.2,20.7-19.4,28.8-30.7c0.2-0.3,0.5-0.7,0.7-1
	c3.6-5.1,6.9-10.6,9.6-16.2c1.5-3.1,2.8-6.3,4-9.5c3-8.4,4.7-17.2,5-26.1c0.6-17.8-4.6-35.5-16.5-48.4
	C846.2,293.9,845.9,293.6,845.6,293.3z"/>
<path class="st1" d="M845.1,293.6c5.7,21.5,4.4,44.3-3.6,65c-1.6,4.5-4,8.7-6.9,12.5c-3,3.6-6.9,6.3-11.3,7.9
	c-4.1,1.5-8.4,2.6-12,5.1c-3.7,2.6-6.1,6.8-6.6,11.3c-0.8,5.6,0.5,11.1,2,16.4c1.6,5.9,3.4,12.1,2.2,18.3c-0.1,0.7,1,0.9,1.2,0.2
	c2.1-10.8-4.3-20.7-4.4-31.4c0-5,1.5-10,5.5-13.2c3.5-2.8,8-3.9,12.1-5.5c4.3-1.5,8.2-4,11.3-7.3c3.1-3.6,5.6-7.7,7.4-12.2
	c4.1-10,6.6-20.5,7.5-31.2c1-12.2,0-24.6-3.2-36.5C846,292.4,844.9,292.9,845.1,293.6z"/>
<path class="st1" d="M844.5,352.1c7.6,1.8,15.3-2.2,18.3-9.3c0.3-0.7-0.8-1.2-1.1-0.5c-2.8,6.7-10,10.4-17.1,8.7
	C843.9,350.8,843.8,351.9,844.5,352.1z"/>
<path class="st1" d="M825.5,378.5c-4.1-6.5-5.6-14.3-4.2-21.9c0.1-0.8-1-0.9-1.2-0.2c-1.5,7.9,0.1,16,4.4,22.8
	C824.9,379.8,825.9,379.1,825.5,378.5z"/>
<path class="st1" d="M848.9,317.9c-3-0.1-5.8-1.7-7.4-4.3c-0.4-0.7-1.4,0.1-1,0.7c1.8,2.8,4.8,4.6,8.2,4.7c0.3,0,0.6-0.2,0.7-0.5
	C849.5,318.2,849.2,317.9,848.9,317.9z"/>
<path class="st2" d="M243.9,280.4c-3.2-1.9-4.3-6.1-2.3-9.3c0.2-0.3,0.4-0.7,0.7-1l-12-21l12.5,0.8l9.5,19.8c2.7,2.7,2.7,7,0,9.7
	C250,281.6,246.5,282,243.9,280.4z"/>
<polygon class="st2" points="151.6,423.5 159.9,423.5 163.9,391.5 151.6,391.5 "/>
<path class="st3" d="M149.5,420.8l16.3,0h0c5.7,0,10.4,4.7,10.4,10.4v0.3l-26.7,0L149.5,420.8z"/>
<polygon class="st2" points="208.5,423.5 216.7,423.5 220.7,391.5 208.5,391.5 "/>
<path class="st3" d="M206.3,420.8l16.3,0h0c5.7,0,10.4,4.7,10.4,10.4v0.3l-26.7,0L206.3,420.8z"/>
<path class="st3" d="M229.8,250c0,0,2.3,32.5-2.2,48.9s-5.3,115.3-5.3,115.3h-15.1l-13.1-134.7l-30.1,135.2l-14.3-1l7.9-159.3
	L229.8,250z"/>
<path class="st4" d="M163.8,140.5l11.5-8.4l19.3,4.2l5.2,12.4l9,4.5c6,3,10.2,8.7,11.1,15.4l12.9,88.8l-75.2-2.9l-9.1-104.6
	c-0.4-4.5,2.9-8.5,7.5-8.9c0.1,0,0.2,0,0.2,0L163.8,140.5z"/>
<polygon class="st4" points="213.6,160.1 220.5,169.4 250.8,261.7 236.6,267.4 213.9,224.4 "/>
<circle class="st5" cx="188.4" cy="110.9" r="16.8"/>
<polygon class="st6" points="151.8,180 179.2,218.1 209.9,238.1 "/>
<path class="st3" d="M179.5,123c-1.2-2.3-2.4-4.9-1.9-7.4s3.4-4.8,5.7-3.5c0.9-3.4,5.1-4.9,8.6-4.5s6.8,2.1,10.2,2.8
	s7.7,0.2,9.6-2.9l-4.5-0.1l4.7-5.4l-5.4-0.4c1.9-2,1.4-5.5-0.4-7.5s-4.6-3.1-7.3-3.7c-5.4-1.2-10.9-1.4-16.3-0.4
	c-2.6,0.4-5,1.2-7.3,2.5c-2.1,1.3-3.9,3.1-5.1,5.3c-1.3,2.4-2,5.2-2.1,7.9c-0.2,7.5,3.5,14.6,9.8,18.8"/>
<path class="st7" d="M805.2,432H283.7c-11.2,0-20.2-9.1-20.3-20.3V20.3c0-11.2,9.1-20.2,20.3-20.3h521.5c11.2,0,20.2,9.1,20.3,20.3
	v391.5C825.4,422.9,816.4,432,805.2,432z"/>
<path class="st1" d="M673.9,179.7h-80.5c-8.3,0-15-6.7-15-15s6.7-15,15-15h80.5c8.3,0,15,6.7,15,15S682.2,179.7,673.9,179.7z"/>
<path class="st1" d="M603.4,220.7h-19c-3,0-5.5-2.5-5.5-5.5s2.5-5.5,5.5-5.5h19c3,0,5.5,2.5,5.5,5.5S606.5,220.7,603.4,220.7z"/>
<path class="st1" d="M682.4,220.7h-19c-3,0-5.5-2.5-5.5-5.5s2.5-5.5,5.5-5.5h19c3,0,5.5,2.5,5.5,5.5S685.5,220.7,682.4,220.7
	L682.4,220.7z"/>
<path class="st1" d="M642.4,220.7h-19c-3,0-5.5-2.5-5.5-5.5s2.5-5.5,5.5-5.5h19c3,0,5.5,2.5,5.5,5.5S645.5,220.7,642.4,220.7z"/>
<path class="st1" d="M603.4,241.7h-19c-3,0-5.5-2.5-5.5-5.5s2.5-5.5,5.5-5.5h19c3,0,5.5,2.5,5.5,5.5S606.5,241.7,603.4,241.7z"/>
<path class="st1" d="M682.4,241.7h-19c-3,0-5.5-2.5-5.5-5.5s2.5-5.5,5.5-5.5h19c3,0,5.5,2.5,5.5,5.5S685.5,241.7,682.4,241.7
	L682.4,241.7z"/>
<path class="st1" d="M642.4,241.7h-19c-3,0-5.5-2.5-5.5-5.5s2.5-5.5,5.5-5.5h19c3,0,5.5,2.5,5.5,5.5S645.5,241.7,642.4,241.7z"/>
<path class="st1" d="M603.4,262.7h-19c-3,0-5.5-2.5-5.5-5.5c0-3,2.5-5.5,5.5-5.5h19c3,0,5.5,2.5,5.5,5.5
	C608.9,260.3,606.5,262.7,603.4,262.7z"/>
<path class="st1" d="M682.4,262.7h-19c-3,0-5.5-2.5-5.5-5.5c0-3,2.5-5.5,5.5-5.5h19c3,0,5.5,2.5,5.5,5.5
	C687.9,260.3,685.5,262.7,682.4,262.7L682.4,262.7z"/>
<path class="st1" d="M642.4,262.7h-19c-3,0-5.5-2.5-5.5-5.5c0-3,2.5-5.5,5.5-5.5h19c3,0,5.5,2.5,5.5,5.5
	C647.9,260.3,645.5,262.7,642.4,262.7z"/>
<path class="st1" d="M603.4,283.7h-19c-3,0-5.5-2.5-5.5-5.5c0-3,2.5-5.5,5.5-5.5h19c3,0,5.5,2.5,5.5,5.5
	C608.9,281.3,606.5,283.7,603.4,283.7z"/>
<path class="st1" d="M682.4,283.7h-19c-3,0-5.5-2.5-5.5-5.5c0-3,2.5-5.5,5.5-5.5h19c3,0,5.5,2.5,5.5,5.5
	C687.9,281.3,685.5,283.7,682.4,283.7L682.4,283.7z"/>
<path class="st1" d="M642.4,283.7h-19c-3,0-5.5-2.5-5.5-5.5c0-3,2.5-5.5,5.5-5.5h19c3,0,5.5,2.5,5.5,5.5
	C647.9,281.3,645.5,283.7,642.4,283.7z"/>
<ellipse transform="matrix(0.1602 -0.9871 0.9871 0.1602 190.8214 645.7833)" class="st8" cx="474.9" cy="210.7" rx="51" ry="51"/>
<path class="st1" d="M474.9,273.2c-8.3,0-15-6.7-15-15v-95c0-8.3,6.7-15,15-15c8.3,0,15,6.7,15,15c0,0,0,0,0,0v95
	C489.9,266.5,483.2,273.2,474.9,273.2z"/>
<path class="st7" d="M608.2,173.3h-14c-1.1,0-2-0.9-2-2s0.9-2,2-2h14c1.1,0,2,0.9,2,2S609.3,173.3,608.2,173.3z"/>
<path class="st7" d="M630.2,173.8h-14c-1.1,0-2-0.9-2-2s0.9-2,2-2h14c1.1,0,2,0.9,2,2S631.3,173.8,630.2,173.8z"/>
<path class="st7" d="M652.2,174.3h-14c-1.1,0-2-0.9-2-2s0.9-2,2-2h14c1.1,0,2,0.9,2,2S653.3,174.3,652.2,174.3z"/>
<path class="st7" d="M674.2,174.8h-14c-1.1,0-2-0.9-2-2s0.9-2,2-2h14c1.1,0,2,0.9,2,2S675.3,174.8,674.2,174.8z"/>
<path class="st8" d="M329.9,370.2c0,5,2,9.8,5.6,13.3h-8.3c-10.2,0-18.6-8.3-18.6-18.6c0,0,0,0,0,0V64.1c0-10.2,8.3-18.6,18.6-18.6
	l0,0h12c-5.8,3.4-9.3,9.5-9.3,16.2L329.9,370.2z"/>
<path class="st8" d="M939.5,434H1.2c-0.7,0-1.2-0.5-1.2-1.2c0-0.7,0.5-1.2,1.2-1.2h938.3c0.7,0,1.2,0.5,1.2,1.2
	C940.7,433.4,940.1,434,939.5,434z"/>
<path class="st1" d="M327.9,133.5c-6.3-1.8-12.7-3.4-19-4.9c-21.8-5.2-43.8-9-66.1-11.5c-7.8-2.1-15.9,2.6-18,10.4l-11.1,41
	c-2.1,7.9,2.5,16,10.4,18.1l0.1,0c14.7,1.7,29.5,4,44.3,7c1.3,0.3,2.6,0.5,4,0.8c4.7,1,9.4,2,14.1,3.1c2.1,0.5,4.1,1,6.2,1.5
	c5.5,1.4,11.1,2.9,16.6,4.4c6.2,1.7,12.3,3.6,18.5,5.6c0.7,0.2,1.3,0.4,2,0.6V134C329.3,133.8,328.6,133.7,327.9,133.5z"/>
<path class="st9" d="M327.9,133.5c-6.3-1.8-12.7-3.4-19-4.9c-21.8-5.2-43.8-9-66.1-11.5c-7.8-2.1-15.9,2.6-18,10.4l-11.1,41
	c-2.1,7.9,2.5,16,10.4,18.1l0.1,0c14.7,1.7,29.5,4,44.3,7c1.3,0.3,2.6,0.5,4,0.8c4.7,1,9.4,2,14.1,3.1c2.1,0.5,4.1,1,6.2,1.5
	c5.5,1.4,11.1,2.9,16.6,4.4c6.2,1.7,12.3,3.6,18.5,5.6c0.7,0.2,1.3,0.4,2,0.6v-2.1c-0.7-0.2-1.3-0.4-2-0.6c-5.7-1.8-11.4-3.5-17-5.1
	c-2.1-0.6-4.2-1.2-6.4-1.8c-3.8-1-7.6-2-11.4-3c-2-0.5-4-1-6.1-1.5c-0.1,0-0.3-0.1-0.5-0.1c-3.4-0.8-6.9-1.6-10.3-2.3
	c-1.3-0.3-2.6-0.6-4-0.8c-15.9-3.3-32-5.9-47.8-7.7c-6.8-1.9-10.7-8.9-8.9-15.6l11.1-41c1.9-6.8,8.9-10.8,15.6-9l0.1,0
	c22,2.4,43.8,6.2,65.3,11.3c0.2,0.1,0.4,0.1,0.7,0.2c6.5,1.6,13,3.2,19.5,5.1c0.7,0.2,1.3,0.4,2,0.6V134
	C329.3,133.8,328.6,133.7,327.9,133.5z"/>
<path class="st9" d="M329.9,135.1v73.4c-0.7-0.2-1.3-0.4-2-0.6c-5.9-1.9-11.8-3.7-17.8-5.3c-5.7-1.6-11.4-3.1-17.2-4.6
	c-2-0.5-4.1-1-6.1-1.5c-0.1-0.4-0.2-0.7-0.2-1.1c-0.4-1.7-0.7-3.5-0.9-5.2c-0.1-0.7-0.2-1.3-0.2-2c-2.1-21.7,6.1-43.2,22.3-57.9
	c0.3-0.3,0.6-0.5,0.9-0.8c6.5,1.5,12.9,3.2,19.3,5C328.6,134.7,329.3,134.9,329.9,135.1z"/>
<path class="st9" d="M263.5,165.2l-27.8-3.3c-4.1-0.5-7.8,2.5-8.3,6.6c-0.5,4.1,2.5,7.8,6.6,8.3l0,0l27.8,3.3
	c4.1,0.5,7.8-2.5,8.3-6.6C270.5,169.4,267.6,165.7,263.5,165.2z M268.1,173.3c-0.4,3-3.1,5.2-6.1,4.8l-27.8-3.3
	c-3-0.4-5.2-3.1-4.8-6.1c0.4-3,3.1-5.1,6.1-4.8l27.8,3.3C266.3,167.5,268.4,170.2,268.1,173.3L268.1,173.3z"/>
<path class="st1" d="M329.9,152.3v34.8c-0.6,0.4-1.3,0.7-2,1c-7.3,3.3-15.9,1.9-21.8-3.5c-0.3-0.2-0.6-0.5-0.8-0.8
	c-0.3-0.3-0.5-0.6-0.8-0.9c-7.3-8.4-6.4-21.2,2-28.5c5.9-5.2,14.3-6.4,21.5-3.2C328.6,151.6,329.3,151.9,329.9,152.3z"/>
<path class="st1" d="M327.9,177.5c-7.9,1.6-15.7,3.5-23.4,5.5c-2.9,0.7-5.8,1.5-8.7,2.3c-3.4,0.9-6.9,1.9-10.3,3
	c-4.4,1.3-8.8,2.7-13.1,4.1c-1.3,0.4-2.5,0.8-3.8,1.3c-12.2,4.1-24.3,8.6-36.1,13.5c-7.9,2-12.7,9.9-10.8,17.8l10,41.3
	c1.9,7.9,9.9,12.8,17.8,10.9l0.1,0c19.6-8,39.6-14.9,59.9-20.5c6.1-1.7,12.2-3.3,18.4-4.8c0.7-0.2,1.3-0.3,2-0.5v-74
	C329.3,177.2,328.6,177.3,327.9,177.5z"/>
<path class="st9" d="M327.9,177.5c-7.9,1.6-15.7,3.5-23.4,5.5c-2.9,0.7-5.8,1.5-8.7,2.3c-3.4,0.9-6.9,1.9-10.3,3
	c-4.4,1.3-8.8,2.7-13.1,4.1c-1.3,0.4-2.5,0.8-3.8,1.3c-12.2,4.1-24.3,8.6-36.1,13.5c-7.9,2-12.7,9.9-10.8,17.8l10,41.3
	c1.9,7.9,9.9,12.8,17.8,10.9l0.1,0c19.6-8,39.6-14.9,59.9-20.5c6.1-1.7,12.2-3.3,18.4-4.8c0.7-0.2,1.3-0.3,2-0.5v-2.1
	c-0.7,0.2-1.3,0.3-2,0.5c-0.5,0.1-1,0.2-1.5,0.4c-5.9,1.4-11.7,2.9-17.5,4.5c-0.1,0-0.3,0.1-0.5,0.1c-20.3,5.6-40.2,12.5-59.6,20.5
	c-6.8,1.6-13.7-2.6-15.3-9.4l-10-41.3c-1.7-6.8,2.5-13.7,9.4-15.4l0.1,0c13-5.4,26.1-10.2,39.4-14.5c1.3-0.4,2.6-0.8,3.8-1.2
	c3.1-1,6.3-2,9.4-2.9c3.3-1,6.6-1.9,9.9-2.9c0.2-0.1,0.4-0.1,0.7-0.2c3.2-0.9,6.5-1.8,9.8-2.6c7.2-1.8,14.5-3.5,21.8-5.1
	c0.7-0.1,1.3-0.3,2-0.4v-2C329.3,177.2,328.6,177.3,327.9,177.5z"/>
<path class="st9" d="M329.9,178.1v72c-0.7,0.1-1.3,0.3-2,0.5c-6.3,1.5-12.5,3.1-18.7,4.9c-0.2-0.3-0.5-0.6-0.7-0.8
	c-13.1-15.3-18.9-35.7-15.7-55.6c0.1-0.3,0.1-0.7,0.2-1c0-0.3,0.1-0.6,0.2-1c0.6-3.3,1.5-6.5,2.6-9.6c0.1-0.4,0.3-0.8,0.4-1.1
	c3-0.8,6.1-1.6,9.2-2.4c7.5-1.9,15.1-3.7,22.7-5.3C328.6,178.4,329.3,178.2,329.9,178.1z"/>
<path class="st9" d="M283.5,243.3c-1.6-3.8-5.9-5.7-9.8-4.1l-26,10.5c-3.8,1.6-5.7,5.9-4.1,9.8c1.6,3.8,5.9,5.7,9.8,4.1l26-10.5
	C283.2,251.5,285,247.2,283.5,243.3z M278.6,251.2l-26,10.5c-2.8,1.1-6-0.2-7.2-3c-1.1-2.8,0.2-6,3-7.2l0,0l26-10.5
	c2.8-1.1,6,0.2,7.2,3C282.7,246.9,281.4,250.1,278.6,251.2z"/>
<path class="st1" d="M329.9,196.5v39.2c-0.7,0.2-1.3,0.3-2,0.4c-11.1,1.5-21.3-6.2-22.8-17.2c-0.8-5.5,0.8-11.2,4.3-15.5
	c0.2-0.3,0.5-0.6,0.7-0.8c0.2-0.3,0.5-0.5,0.8-0.8c4.5-4.4,10.8-6.5,17-5.6C328.6,196.2,329.3,196.3,329.9,196.5z"/>
<path class="st3" d="M327.9,128.3v99.8c0.7-0.2,1.3-0.4,2-0.6v-98.3C329.3,128.9,328.6,128.6,327.9,128.3z M327.9,128.3v99.8
	c0.7-0.2,1.3-0.4,2-0.6v-98.3C329.3,128.9,328.6,128.6,327.9,128.3z M327.9,128.3v99.8c0.7-0.2,1.3-0.4,2-0.6v-98.3
	C329.3,128.9,328.6,128.6,327.9,128.3z M327.9,135.6v115c0.7-0.2,1.3-0.3,2-0.5v-114C329.3,135.9,328.6,135.7,327.9,135.6
	L327.9,135.6z M327.9,135.6v115c0.7-0.2,1.3-0.3,2-0.5v-114C329.3,135.9,328.6,135.7,327.9,135.6L327.9,135.6z M327.9,135.6v115
	c0.7-0.2,1.3-0.3,2-0.5v-114C329.3,135.9,328.6,135.7,327.9,135.6L327.9,135.6z M327.9,135.6v115c0.7-0.2,1.3-0.3,2-0.5v-114
	C329.3,135.9,328.6,135.7,327.9,135.6L327.9,135.6z M327.9,135.6v116c0.7-0.2,1.3-0.3,2-0.5v-115
	C329.3,135.9,328.6,135.7,327.9,135.6L327.9,135.6z M764.2,41H348.7c-11.5,0-20.7,9.3-20.8,20.8v308.5c0,11.5,9.3,20.7,20.8,20.8
	h415.5c11.5,0,20.7-9.3,20.8-20.8V61.8C784.9,50.3,775.6,41,764.2,41L764.2,41z M782.9,370.2c0,10.4-8.4,18.7-18.8,18.8H348.7
	c-10.4,0-18.7-8.4-18.8-18.8V61.8c0-10.4,8.4-18.7,18.8-18.8h415.5c10.4,0,18.7,8.4,18.8,18.8V370.2z M327.9,135.6v114
	c0.7-0.2,1.3-0.3,2-0.5V136.1C329.3,135.9,328.6,135.7,327.9,135.6L327.9,135.6z M327.9,135.6v115c0.7-0.2,1.3-0.3,2-0.5v-114
	C329.3,135.9,328.6,135.7,327.9,135.6L327.9,135.6z M327.9,135.6v115c0.7-0.2,1.3-0.3,2-0.5v-114
	C329.3,135.9,328.6,135.7,327.9,135.6L327.9,135.6z M327.9,135.6v115c0.7-0.2,1.3-0.3,2-0.5v-114
	C329.3,135.9,328.6,135.7,327.9,135.6L327.9,135.6z M327.9,128.3v99.8c0.7-0.2,1.3-0.4,2-0.6v-98.3
	C329.3,128.9,328.6,128.6,327.9,128.3z M327.9,128.3v99.8c0.7-0.2,1.3-0.4,2-0.6v-98.3C329.3,128.9,328.6,128.6,327.9,128.3z"/>
<path class="st2" d="M238.9,233.9c-1.5-3.5-5.5-5.1-8.9-3.6c-0.4,0.2-0.7,0.3-1.1,0.6l-19.2-14.7l-0.9,12.5l18.3,12.1
	c2.3,3,6.6,3.6,9.6,1.3C239.2,240.2,240.1,236.8,238.9,233.9z"/>
<path class="st4" d="M161.6,145l-6.3-3c0,0-10.2,2.9-5.2,16.3l29.9,55.7l36.5,21.4l11.4-10.1l-36.5-28.9L161.6,145z"/>
</svg>
