<?xml version="1.0" encoding="utf-8"?>
<!-- Generator: Adobe Illustrator 26.0.1, SVG Export Plug-In . SVG Version: 6.00 Build 0)  -->
<svg version="1.1" id="Layer_1" xmlns="http://www.w3.org/2000/svg" xmlns:xlink="http://www.w3.org/1999/xlink" x="0px" y="0px"
	 viewBox="0 0 100 100" style="enable-background:new 0 0 100 100;" xml:space="preserve">
<style type="text/css">
	.st0{opacity:4.000000e-02;}
	.st1{fill:none;stroke:#53438F;stroke-width:2;stroke-miterlimit:10;}
	.st2{fill:#FFFFFF;stroke:#53438F;stroke-width:2;stroke-miterlimit:10;}
</style>
<g class="st0">
	<path class="st1" d="M46.5,87.5H16c-1.9,0-3.5-1.6-3.5-3.5V53.5c0-1.9,1.6-3.5,3.5-3.5h30.5c1.9,0,3.5,1.6,3.5,3.5V84
		C50,85.9,48.4,87.5,46.5,87.5z"/>
	<path class="st1" d="M84,50H53.5c-1.9,0-3.5-1.6-3.5-3.5V16c0-1.9,1.6-3.5,3.5-3.5H84c1.9,0,3.5,1.6,3.5,3.5v30.5
		C87.5,48.4,85.9,50,84,50z"/>
	<path class="st2" d="M65.2,68.8H34.8c-1.9,0-3.5-1.6-3.5-3.5V34.8c0-1.9,1.6-3.5,3.5-3.5h30.5c1.9,0,3.5,1.6,3.5,3.5v30.5
		C68.8,67.2,67.2,68.8,65.2,68.8z"/>
</g>
<g>
</g>
<g>
</g>
<g>
</g>
<g>
</g>
<g>
</g>
<g>
</g>
</svg>
