<?xml version="1.0" encoding="utf-8"?>
<!-- Generator: Adobe Illustrator 26.0.1, SVG Export Plug-In . SVG Version: 6.00 Build 0)  -->
<svg version="1.1" id="Layer_1" xmlns="http://www.w3.org/2000/svg" xmlns:xlink="http://www.w3.org/1999/xlink" x="0px" y="0px"
	 viewBox="0 0 100 100" style="enable-background:new 0 0 100 100;" xml:space="preserve">
<style type="text/css">
	.st0{opacity:4.000000e-02;}
	.st1{fill:none;stroke:#53438F;stroke-width:2;stroke-miterlimit:10;}
	.st2{fill:#FFFFFF;stroke:#53438F;stroke-width:2;stroke-miterlimit:10;}
	.st3{fill-rule:evenodd;clip-rule:evenodd;fill:#54428E;}
</style>
<g class="st0">
	<path class="st1" d="M46.5,87.5H16c-1.9,0-3.5-1.6-3.5-3.5V53.5c0-1.9,1.6-3.5,3.5-3.5h30.5c1.9,0,3.5,1.6,3.5,3.5V84
		C50,85.9,48.4,87.5,46.5,87.5z"/>
	<path class="st1" d="M84,50H53.5c-1.9,0-3.5-1.6-3.5-3.5V16c0-1.9,1.6-3.5,3.5-3.5H84c1.9,0,3.5,1.6,3.5,3.5v30.5
		C87.5,48.4,85.9,50,84,50z"/>
	<path class="st2" d="M65.2,68.8H34.8c-1.9,0-3.5-1.6-3.5-3.5V34.8c0-1.9,1.6-3.5,3.5-3.5h30.5c1.9,0,3.5,1.6,3.5,3.5v30.5
		C68.8,67.2,67.2,68.8,65.2,68.8z"/>
</g>
<g id="Layer_1-2" class="st0">
	<g id="_2005179976224">
		<path class="st3" d="M40.1,49.1h24.7c0.3-1.4,0.3-2.8,0.1-4.1c-0.2-0.1-0.5-0.1-0.7-0.1H38.5c0.3,1.1,0.6,2.2,1.1,3.2
			C39.8,48.4,39.9,48.8,40.1,49.1L40.1,49.1L40.1,49.1z"/>
		<path class="st3" d="M41.8,58.5c0,0.6,0.2,0.6,0.8,1.2L46,63c0.6,0.7,0.2,0.4,0.7,0.6c0.2-0.4,3.1-5.9,3.8-6.1
			c1.4-0.5,4.9,0.8,8.8-1.1c1-0.5,3.3-2.1,3.5-3.1h-21V58.5z"/>
		<path class="st3" d="M36.6,40.7h26.2c-0.3-0.5-0.6-1-1.1-1.3c-3.2-3.2-6.8-2.8-10.7-2.8h-16C35.1,37.4,36.4,39.6,36.6,40.7z"/>
	</g>
</g>
</svg>
